<?xml version="1.0" encoding="utf-8"?>
<!-- Generator: Adobe Illustrator 16.0.3, SVG Export Plug-In . SVG Version: 6.00 Build 0)  -->
<!DOCTYPE svg PUBLIC "-//W3C//DTD SVG 1.1//EN" "http://www.w3.org/Graphics/SVG/1.1/DTD/svg11.dtd">
<svg version="1.1" id="Layer_1" xmlns="http://www.w3.org/2000/svg" xmlns:xlink="http://www.w3.org/1999/xlink" x="0px" y="0px"
	 width="1000px" height="1000px" viewBox="0 0 1000 1000" enable-background="new 0 0 1000 1000" xml:space="preserve">
<g>
	<g>
		<linearGradient id="SVGID_1_" gradientUnits="userSpaceOnUse" x1="263.5527" y1="496.7231" x2="758.0518" y2="496.7231">
			<stop  offset="0" style="stop-color:#00FF1E;stop-opacity:0.5"/>
			<stop  offset="0.3495" style="stop-color:#6AFFDB"/>
			<stop  offset="0.6344" style="stop-color:#005511"/>
			<stop  offset="0.957" style="stop-color:#FFFFFF;stop-opacity:0.3"/>
		</linearGradient>
		<path fill="url(#SVGID_1_)" d="M725.441,710.992l-30.211-55.557l-24.372-44.475l-2.9-5.512l-15.223-26.975
			c10.471-6.992,20.233-14.956,29.147-23.686c14.604-14.299,26.955-30.789,36.482-48.879c9.266-17.593,15.855-36.742,19.277-56.908
			c0.98-5.768,1.705-11.622,2.151-17.547c0.348-4.623,0.534-9.292,0.543-14c0-0.155,0.007-0.311,0.007-0.466
			c0-10.577-0.878-20.954-2.542-31.075c-3.396-20.626-10.102-38.677-19.595-56.624c-1.918-3.625-3.976-7.178-6.157-10.658
			c-2.165-3.445-4.458-6.825-6.876-10.104c-2.401-3.254-4.891-6.476-7.527-9.552c-2.639-3.079-5.275-6.183-8.14-9.067
			c-2.396-2.414-4.901-4.75-7.021-7.405c-1.884-2.354-3.161-5.136-5.19-7.377c-1.996-2.206-4.384-4.033-6.65-5.959
			c-3.572-3.039-7.233-6.014-11.014-8.804c-7.667-5.66-15.819-10.673-24.281-15.121c-8.5-4.468-17.284-8.461-26.289-11.868
			c-9.125-3.451-18.504-6.213-28.095-8.117c-8.402-1.667-16.912-2.688-25.441-3.507c-9.649-0.927-19.475-1.132-29.263-0.769
			c-2.903,0.109-5.811,0.238-8.716,0.355c-3.064,0.124-6.129,0.248-9.194,0.354c-15.071,0.521-30.151,2.023-45.228,2.037
			c-3.318,0.002-6.634,1.011-9.952,1.629h-0.729h-8.194h-1.268h-59.015h-7.183h-39.346h-0.161h-8.521h-65.204v1.509v54.765h0.635
			v45.897v58.128v31.539v31.538v56.893v32.899c15.865-16.335,38.487-27.536,62.046-31.597c-0.011-0.036-0.931-0.075-0.938-0.112
			c0.242-0.031-0.188-0.063-0.188-0.097v-0.268c3.808-0.541,9.624-0.919,13.549-1.144c4.484-0.255,9.895-0.285,14.386-0.192
			c4.774,0.097,10.114,0.254,14.929,0.078c5.336-0.195,10.906-0.274,16.247-0.222c5.275,0.053,10.768-0.02,16.081,0.015
			c3.771,0.024,7.596,0.059,11.367,0.031c2.097-0.015,4.222-0.048,6.316-0.013c1.593,0.024,3.197,0.01,4.788,0.001
			c3.351-0.017,6.705-0.013,10.054,0.006c1.482,0.008,2.974-0.006,4.459-0.011c3.437-0.011,6.879,0.007,10.315,0.014
			c1.046,0.002,2.093-0.009,3.137-0.015c2.174-0.01,4.346,0.014,6.521,0.014c3.258,0,6.516-0.014,9.772-0.012
			c3.679,0.003,7.355,0.013,11.033,0.01c2.869-0.003,5.737-0.013,8.605-0.006c1.21,0.001,2.422,0.011,3.633,0.002
			c1.112-0.007,2.226-0.002,3.338-0.001c2.897,0.006,5.795,0.002,8.691-0.001c3.606-0.003,7.216,0.001,10.821,0.003
			c8.875,0.006,17.447-0.08,26.192-1.774c2.394-0.465,4.774-0.99,7.151-1.538c5.2-1.198,10.368-2.558,15.434-4.223
			c4.991-1.643,9.883-3.583,14.574-5.922c4.664-2.325,9.122-5.042,13.266-8.17c4.188-3.162,8.046-6.737,11.491-10.66
			c3.541-4.029,6.644-8.418,9.278-13.059c2.719-4.788,4.939-9.841,6.667-15.048c1.768-5.332,3.017-10.825,3.759-16.381
			c0.748-5.6,0.98-11.265,0.7-16.903c-0.277-5.576-1.059-11.13-2.345-16.569c-0.785-3.322-1.76-6.602-2.924-9.817
			c-0.686-1.9-1.439-3.777-2.257-5.628c-2.111-4.773-4.66-9.365-7.627-13.686c-2.817-4.104-6.012-7.965-9.54-11.509
			c-3.33-3.348-6.956-6.413-10.825-9.155c-3.627-2.572-7.467-4.86-11.461-6.85c-3.715-1.849-7.562-3.441-11.5-4.781
			c-3.618-1.233-7.311-2.252-11.05-3.079c-3.394-0.749-6.821-1.34-10.27-1.792c-3.101-0.408-6.216-0.706-9.338-0.921
			c-2.806-0.192-5.615-0.318-8.424-0.404c-2.553-0.077-5.107-0.121-7.661-0.154c-2.377-0.03-4.755-0.051-7.131-0.073
			c-2.288-0.021-4.576-0.047-6.864-0.074c-2.274-0.028-4.551-0.061-6.826-0.091c-2.314-0.031-4.63-0.061-6.946-0.084
			c-2.376-0.022-4.751-0.04-7.126-0.043c-2.425-0.004-4.85,0.001-7.272,0.02c-2.438,0.018-4.877,0.047-7.313,0.085
			c-2.403,0.039-4.806,0.083-7.207,0.132c-2.319,0.048-4.64,0.097-6.959,0.145c-2.202,0.042-4.403,0.083-6.605,0.115
			c-2.073,0.029-4.149,0.048-6.224,0.055c-1.964,0.006-3.926,0.001-5.892-0.018c-1.891-0.018-3.781-0.047-5.673-0.085
			c-1.873-0.036-3.748-0.08-5.622-0.125c-1.914-0.044-3.831-0.09-5.742-0.129c-2.007-0.042-4.011-0.076-6.016-0.101
			c-2.123-0.024-4.247-0.038-6.372-0.039c-2.245-0.002-4.492,0.008-6.738,0.028c-2.348,0.021-6.514,0.052-8.862,0.088
			c-2.304,0.036-6.197,0.076-8.737,0.116c0,0.559,0,1.117,0,1.676c0,1.521,0,3.043,0,4.565c0,2.25,0,4.5,0,6.75
			c0,2.693,0,5.386,0,8.081c0,2.928,0,5.857,0,8.785c0,2.921,0,5.842,0,8.763c0,2.614,0,5.228,0,7.842c0,2.15,0,4.3,0,6.451
			c0,1.349,0,2.699,0,4.049c0,0.47,0,0.939,0,1.409c0,1.212,0,2.424,0,3.637c0,2.558,0,5.114,0,7.67c0,2.891,0,5.781,0,8.67
			c0,2.545,0,5.09,0,7.634c0,1.153,0,2.306,0,3.458c0,0.784,0,1.566,0,2.35c0,2.214,0,4.428,0,6.642c0,2.863,0,5.723,0,8.585
			c0,2.762,0,5.525,0,8.288c0,1.673,0,3.348,0,5.022c0,0.181,0,3.218,0,3.836c0,0,0.541,0,0.549,0c-2.431,0-4.862,0-7.296,0
			c-2.905,0-5.81,0-8.714,0c-2.828,0-5.653,0-8.479,0c-2.353,0-4.7,0-7.051,0c-1.497,0-2.993,0-4.49,0c-0.609,0-1.22,0-1.827,0
			c-2.364,0-4.728,0-7.093,0c-2.18,0-4.36,0-6.541,0c-0.203,0-4.265,0-4.265,0v-33.875c0,0,0-22.083,0-22.096v-9.443v-41.641
			v-16.487V281.63h41.23h0.161h17.469h10.878h0.066h13.57h0.127h14.977h0.406h20.258h38.398h2.066h46.318
			c1.768-0.619,3.537-0.107,5.319-0.107c1.781,0,3.554-0.511,5.318,0.107h1.709c41.527,1.236,78.495,18.728,103.472,47.812
			c14.2,16.537,24.527,35.526,29.604,57.3c2.319,9.943,3.547,19.876,3.547,30.505c0,0.207-0.01,0.203-0.01,0.409
			c-0.048,10.853-1.373,21.307-3.836,31.434c-5.175,21.287-15.374,40.622-29.305,56.843c-6.915,8.055-14.749,15.304-23.351,21.645
			c-16.839,12.415-36.599,21.41-58.094,25.501c-4.101,0.78-8.266,1.38-12.482,1.988c-0.224-0.045-0.442-0.12-0.667-0.12
			c0.122,0,0.245-0.081,0.367-0.083c-8.527,0.1-17.057,0.266-25.586,0.234c-8.359-0.032-16.7,0.759-25.061,0.843
			c-3.485,0.035-6.902,0.714-10.346,1.145c-7.105,0.891-14.273,0.326-21.412,0.39c-7.186,0.065-14.368,0.141-21.55-0.066
			c-2.025-0.057-4.06-0.239-6.081-0.239c-2.112-0.107-4.226-0.214-6.34-0.294c-1.838-0.068-3.676-0.111-5.516-0.124
			c-2.393-0.011-4.786,0.035-7.178,0.042c-4.023,0.014-8.049-0.002-12.072,0.024c-3.392,0.021-6.788,0.009-10.184,0
			c-1.616-0.003-3.231,0-4.85-0.003c-0.034-0.001-0.068,0-0.103,0h-9.37h-16.374c-6.321,0-12.5,0.369-18.495,1.458
			c-7.068,1.283-13.88,3.18-20.339,5.828c-23.557,9.653-42.485,27.777-52.679,50.481c-5.297,11.799-8.24,24.998-8.24,38.685
			c0,1.813,0.055,3.727,0.158,5.582h-1.11v20.487v0.226v33.912v59.16h61.871h53.622v-0.459c1.268,0.028,2.436,0.459,3.184,0.459
			h56.782c0-1.238,0.007-2.756,0.003-4.03c-0.01-3.144,0.011-6.388,0.004-9.529c-0.012-4.042,0.013-8.135,0.005-12.176
			c-0.013-6.901,0.144-13.828,0.328-20.726c0.119-4.081,0.228-8.176,0.271-12.257c0.018-1.325-0.133-2.656-0.133-3.98
			c0.004-4.19-0.478-8.382-0.478-12.572c0.636-5.562,0.319-11.127-0.315-16.689c0-4.943,0-9.886,0-14.829c0-2.436,0-4.873,0-7.309
			c0-0.049,0-0.099,0-0.149v-5.49v-12.627v-25.327h1.586h9.575h5.914h8.718l19.124,36.414c0.119,0.023,0.236-0.144,0.355-0.121
			l1.687,3.149l28.299,56.65l30.55,60.979h71.356h66.662h69.183L725.441,710.992z M439.967,427.172v-10.597v-28.582h35.649h55.021
			c17.948,0,32.501,14.12,32.501,31.539c0,17.417-14.553,31.538-32.501,31.538h-19.144H460.74h-20.773V427.172z M385.393,616.547
			v41.842v0.358v34.09v13.79v6.642h-35.978h-18.596v-1.86v-0.116v-52.854v-2.674c0-0.334,0.449-0.666,0.449-1.001
			c0-0.335,0.254-0.46,0.264-0.792c0.547-21.757,19.092-39.027,41.61-39.027h12.25V616.547z M591.703,713.269
			c-0.212-0.619-0.425-1.13-0.638-1.539c-0.581-1.116-1.163-2.384-1.742-3.5c-0.882-1.698-1.759-3.474-2.64-5.172
			c-1.071-2.069-2.146-4.175-3.226-6.241c-1.221-2.344-2.44-4.708-3.658-7.056c-1.245-2.41-2.489-4.831-3.738-7.239
			c-1.231-2.375-2.473-4.752-3.713-7.124c-2.341-4.475-4.846-9.042-7.166-13.589c-0.661-1.294-1.281-2.609-1.817-3.958
			c-0.654-1.656-0.973-3.411-1.594-5.076c-0.629-1.687-1.576-3.238-2.408-4.832c-1.139-2.169-2.211-4.374-3.338-6.546
			c-0.652-1.256-1.309-2.511-1.958-3.767c-1.956-3.767-3.883-7.549-5.824-11.321c-1.646-3.191-3.285-6.382-4.911-9.582
			c-0.772-1.519-1.532-3.047-2.333-4.553c-0.016-0.029-0.033-0.058-0.048-0.085c19.022-0.221,37.418-3.152,54.859-7.98l3.713,6.403
			l15.389,26.996l9.584,19.097l30.954,56.665H591.703z"/>
	</g>
</g>
<linearGradient id="SVGID_2_" gradientUnits="userSpaceOnUse" x1="330" y1="661.5791" x2="386" y2="661.5791">
	<stop  offset="0" style="stop-color:#00FF1E;stop-opacity:0.5"/>
	<stop  offset="0.672" style="stop-color:#FFFFFF;stop-opacity:0.3"/>
	<stop  offset="0.957" style="stop-color:#FFFFFF;stop-opacity:0.3"/>
</linearGradient>
<path fill="url(#SVGID_2_)" d="M372.319,615c-2.133,0-4.411,0.462-6.518,0.763c-2.112,0.301-4.21,0.724-6.257,1.293
	c-4.037,1.122-7.792,2.932-11.157,5.252c-3.399,2.342-6.444,5.157-8.983,8.282c-2.56,3.151-4.526,6.666-5.748,10.433
	c-1.012,3.114-1.521,6.343-1.862,9.57c-0.325,3.092-1.101,6.188-1.106,9.292c-0.001,0.907-0.688,1.814-0.688,2.72
	c0,0.988,0,1.975,0,2.962c0,1.922,0,3.844,0,5.765c0,2.199,0,4.398,0,6.597c0,2.272,0,4.545,0,6.817c0,2.257,0,4.514,0,6.771
	c0,2.037,0,4.074,0,6.11c0,1.707,0,3.413,0,5.119c0,1.224,0,2.448,0,3.671c0,0.518,0,1.035,0,1.552c0,0.014,0.685,0.167,0.688,0.167
	c0.042,0.007,0.429,0.013,0.471,0.02c0.724-10.51,4.755-20.202,10.874-28.231C351.961,666.901,368,658.256,386,657.6v-0.342v-39.955
	V615C386,615,372.321,615,372.319,615z"/>
<linearGradient id="SVGID_3_" gradientUnits="userSpaceOnUse" x1="540.6563" y1="628.9727" x2="615.752" y2="628.9727">
	<stop  offset="0" style="stop-color:#00FF1E;stop-opacity:0.5"/>
	<stop  offset="0.672" style="stop-color:#FFFFFF;stop-opacity:0.3"/>
	<stop  offset="0.957" style="stop-color:#FFFFFF;stop-opacity:0.3"/>
</linearGradient>
<path fill="url(#SVGID_3_)" d="M600.194,611.801l-4.528-8.002c-17.48,4.981-35.931,7.747-55.01,7.971l0.014,0.031l21.88,42.345
	c18.638-2.698,36.479-7.76,53.202-14.855L600.194,611.801z"/>
<linearGradient id="SVGID_4_" gradientUnits="userSpaceOnUse" x1="647.668" y1="519.374" x2="741.6807" y2="519.374" gradientTransform="matrix(0.982 -0.0177 0.0183 1.0156 4.115 4.7944)">
	<stop  offset="0" style="stop-color:#00FF1E;stop-opacity:0.2"/>
	<stop  offset="0.672" style="stop-color:#FFFFFF;stop-opacity:0.3"/>
	<stop  offset="0.957" style="stop-color:#FFFFFF;stop-opacity:0.3"/>
</linearGradient>
<path fill="url(#SVGID_4_)" d="M740.648,450.314c-0.24-5.766-0.756-11.464-1.521-17.09c-0.359,5.788-1.011,11.508-1.927,17.152
	c-3.193,19.737-9.69,38.526-18.988,55.861c-9.562,17.828-22.079,34.118-36.971,48.34c-9.308,8.89-19.545,16.97-30.57,24.108
	l17.06,27.763c18.381-14.954,33.967-32.685,45.957-52.454c9.072-14.958,16.081-31.084,20.703-48.048
	c4.47-16.399,6.715-33.58,6.396-51.26C740.762,453.226,740.71,451.769,740.648,450.314z"/>
<linearGradient id="SVGID_5_" gradientUnits="userSpaceOnUse" x1="443" y1="636" x2="494.6543" y2="636">
	<stop  offset="0" style="stop-color:#00FF1E;stop-opacity:0.5"/>
	<stop  offset="0.672" style="stop-color:#FFFFFF;stop-opacity:0.3"/>
	<stop  offset="0.957" style="stop-color:#FFFFFF;stop-opacity:0.3"/>
</linearGradient>
<path fill="url(#SVGID_5_)" d="M443,652v6h29.028h22.626l-1.945-8.094c-0.058-0.012-0.113,1.968-0.172,1.957L472.903,614h-8.576
	h-5.633H443v18.142v0.078V652"/>
<linearGradient id="SVGID_6_" gradientUnits="userSpaceOnUse" x1="433" y1="409" x2="551.1914" y2="409">
	<stop  offset="0" style="stop-color:#00FF1E;stop-opacity:0.5"/>
	<stop  offset="0.672" style="stop-color:#FFFFFF;stop-opacity:0.3"/>
	<stop  offset="0.957" style="stop-color:#FFFFFF;stop-opacity:0.3"/>
</linearGradient>
<path fill="url(#SVGID_6_)" d="M517.404,393h-57.196H433v32h45.857h4.759h67.575C551.191,406,536.064,393,517.404,393z"/>
</svg>
