<?xml version="1.0" encoding="utf-8"?>
<!-- Generator: Adobe Illustrator 16.0.3, SVG Export Plug-In . SVG Version: 6.00 Build 0)  -->
<!DOCTYPE svg PUBLIC "-//W3C//DTD SVG 1.1//EN" "http://www.w3.org/Graphics/SVG/1.1/DTD/svg11.dtd">
<svg version="1.1" xmlns="http://www.w3.org/2000/svg" xmlns:xlink="http://www.w3.org/1999/xlink" x="0px" y="0px" width="1000px"
	 height="1000px" viewBox="0 0 1000 1000" enable-background="new 0 0 1000 1000" xml:space="preserve">
<g id="Layer_1">
	<path d="M534.605,423.684c-0.11,0.092-0.222,0.182-0.333,0.272"/>
	<linearGradient id="SVGID_1_" gradientUnits="userSpaceOnUse" x1="618.4121" y1="583.9858" x2="590.4119" y2="761.9864">
		<stop  offset="0" style="stop-color:#88FF15"/>
		<stop  offset="1" style="stop-color:#000000"/>
	</linearGradient>
	<path fill="url(#SVGID_1_)" d="M650.492,568.11c-9.518,6.429-19.412,12.19-29.646,17.211c-2.511,1.231-5.049,2.408-7.599,3.55
		c-10.34,4.633-21.001,8.519-31.93,11.62c-2.33,12.144-5.045,24.131-8.144,35.94c-0.688,2.617-1.397,5.222-2.12,7.82
		c-7.479,34.359,7.063,72.42,39.143,95.177c22.831-49.747,38.948-103.795,47.001-160.755c0.721-5.094,1.374-10.213,1.964-15.353
		C656.434,565.041,653.537,566.637,650.492,568.11z"/>
	<linearGradient id="SVGID_2_" gradientUnits="userSpaceOnUse" x1="264.0186" y1="292.5586" x2="766.0199" y2="462.5587">
		<stop  offset="0" style="stop-color:#88FF15"/>
		<stop  offset="1" style="stop-color:#000000"/>
	</linearGradient>
	<path fill="url(#SVGID_2_)" d="M705.39,518.772c-4.126,0.728-53.307,16.134-129.866-47.319
		c19.571-19.593,93.873-98.368,87.429-186.81c0,0-67.312,12.877-83.7,61.167c-12.436,36.644-40.488,65.157-53.302,76.788
		c-0.379-0.431-0.753-0.846-1.132-1.281C419.754,300.74,372.635,289.619,372.635,289.619
		c-149.086-50.28-162.104,127.42-162.134,127.828c0.12-1.653,3.786-5.097,4.816-6.475c11.72-15.692,23.783-31.986,39.365-44.104
		c10.532-8.19,22.745-13.632,36.166-14.353c10.306-0.554,20.604,1.386,30.455,4.288c7.399,2.18,14.788,4.388,22.076,6.921
		c27.266,9.481,48.092,27.339,69.961,45.587c11.891,9.923,23.482,20.192,35.042,30.497c10.194,9.088,20.396,18.173,30.39,27.482
		c5.856,5.453,11.81,10.892,17.364,16.656c15.511,16.096,79.312,66.434,133.489,63.8S710.366,517.894,705.39,518.772z"/>
	<path fill="none" stroke="#000000" stroke-miterlimit="10" d="M733.777,467.556"/>
	<path fill="none" stroke="#000000" stroke-miterlimit="10" d="M662.953,456.728"/>
	<linearGradient id="SVGID_3_" gradientUnits="userSpaceOnUse" x1="742.793" y1="541.1357" x2="690.2959" y2="769.1245">
		<stop  offset="0" style="stop-color:#88FF15;stop-opacity:0.6"/>
		<stop  offset="1" style="stop-color:#000000;stop-opacity:0.9871"/>
	</linearGradient>
	<path fill="url(#SVGID_3_)" d="M764.506,382.166c0,0-30.438,112.349-58.533,130.477c0,0-1.361,167.971-58.992,257.964
		c0,0,66.164,12,104.137-81.433C751.117,689.174,799.626,535.588,764.506,382.166z"/>
	<linearGradient id="SVGID_4_" gradientUnits="userSpaceOnUse" x1="249.2617" y1="571.2129" x2="363.256" y2="721.2056">
		<stop  offset="0" style="stop-color:#88FF15"/>
		<stop  offset="1" style="stop-color:#000000"/>
	</linearGradient>
	<path fill="url(#SVGID_4_)" d="M215.328,535.746c0,0,19.755-58.386,68.482-50.484c0,0-5.707,135.772,56.923,270.042
		c0,0-47.993,23.059-88.968-53.033C210.792,626.179,216.206,577.45,215.328,535.746z"/>
	<linearGradient id="SVGID_5_" gradientUnits="userSpaceOnUse" x1="339.8789" y1="420.5508" x2="419.3749" y2="798.5318">
		<stop  offset="0" style="stop-color:#88FF15"/>
		<stop  offset="1" style="stop-color:#000000"/>
	</linearGradient>
	<path fill="url(#SVGID_5_)" d="M419.898,635.125l-16.135-83.157C393.228,533.947,331,498.432,331,498.432v2.195
		c0,12.145,4.552,61.221,5.731,74.68c-0.615-0.104,22.565,124.037,47.149,157.693C383.881,733,428.239,704.652,419.898,635.125z"/>
	<linearGradient id="SVGID_6_" gradientUnits="userSpaceOnUse" x1="782.8555" y1="303.7349" x2="660.8553" y2="475.7347">
		<stop  offset="0" style="stop-color:#88FF15;stop-opacity:0.6"/>
		<stop  offset="1" style="stop-color:#000000"/>
	</linearGradient>
	<path fill="url(#SVGID_6_)" d="M764.388,383.277c-1.021-11.568-5.159-22.68-9.375-33.41c-4.984-12.693-11.674-24.938-20.665-35.253
		c-6.454-7.406-15.981-15.461-26.03-17.264c0.754,0.125-4.965,40.345-5.317,42.721c-4.105,27.598-11.237,56.347-21.876,82.178
		c-4.096,9.943-9.317,19.458-15.62,28.173c-6.654,9.2-14.707,17.267-21.604,26.278c-5.648,7.381-11.571,14.585-18.113,21.198
		c-0.637,0.643-4.947,5.437-6.232,4.74c0.002,0.001,51.596,27.963,85.835,17.135c3.035-0.96,6.344-5.354,8.338-7.592
		c2.965-3.326,5.358-7.13,7.683-10.921c13.631-22.223,21.87-47.16,32.001-71.043c2.876-6.781,5.664-13.607,7.739-20.684
		C763.642,401.036,765.17,392.149,764.388,383.277z"/>
	<linearGradient id="SVGID_7_" gradientUnits="userSpaceOnUse" x1="269.1582" y1="465.8584" x2="609.6406" y2="632.3503">
		<stop  offset="0" style="stop-color:#88FF15"/>
		<stop  offset="1" style="stop-color:#000000"/>
	</linearGradient>
	<path fill="url(#SVGID_7_)" d="M215.328,535.746c0,0-20.193-137.404,88.676-123.795c2.86,0.357,5.707,1.336,8.432,2.215
		c6.937,2.236,13.771,4.821,20.546,7.495c10.385,4.1,20.643,8.578,30.479,13.874c11.551,6.219,22.377,13.646,32.335,22.187
		c11.211,9.615,21.294,20.436,31.211,31.356c10.545,11.611,22.548,22.56,34.876,32.254c11.308,8.892,23.457,16.845,35.723,24.343
		c14.933,9.129,30.57,16.975,47.339,22.126c16.944,5.205,34.885,8.518,52.631,8.795c19.896,0.31,38.395-4.904,56.606-12.531
		c1.938-0.811,5.134-1.506,6.724-2.857c-0.002,0.001-52.679,44.777-90.433,46.533c0,0-70.24,15.218-158.623-49.167
		c0,0-59.701-55.313-102.138-64.093C309.711,494.481,241.814,464.63,215.328,535.746z"/>
	<linearGradient id="SVGID_8_" gradientUnits="userSpaceOnUse" x1="244.7734" y1="565.9355" x2="286.3921" y2="435.2988">
		<stop  offset="0" style="stop-color:#FFFFFF;stop-opacity:0.3"/>
		<stop  offset="1" style="stop-color:#000000;stop-opacity:0.4"/>
	</linearGradient>
	<path fill="url(#SVGID_8_)" d="M286.27,549c-0.063-0.671-0.143-1.336-0.204-2.006c-1.78-19.328-2.354-38.857-2.354-58.701
		c0-0.661,0.012-0.14,0.014-0.798c-0.031,0-0.487,0.005-0.518,0.005c-1.117,0-2.273-0.26-3.416-0.208
		c-14.006,0.637-29.514,4.179-39.836,11.956c-0.985,0.742,0.404-0.382-0.54,0.413c-3.323,2.797-7.275,6.428-10.044,9.821
		c-6.318,7.746-15.331,22.723-13.943,32.708c0.261,1.879,0.019,3.288,0.024,4.656c0.013,3.055-0.085,5.539-0.113,9.986
		c0.031-0.034,0.061-0.072,0.091-0.106c2.193-2.363,4.797-4.286,7.753-5.808c14.053-7.25,36.369-5.196,63.772,4.685
		C286.723,553.402,286.479,551.207,286.27,549z"/>
	
		<linearGradient id="SVGID_9_" gradientUnits="userSpaceOnUse" x1="369.584" y1="616.0562" x2="381.7807" y2="522.3594" gradientTransform="matrix(1 -0.0096 0.0096 1 -5.2612 4.168)">
		<stop  offset="0" style="stop-color:#FFFFFF;stop-opacity:0.3"/>
		<stop  offset="0.0269" style="stop-color:#F5F5F5;stop-opacity:0.3038"/>
		<stop  offset="1" style="stop-color:#000000;stop-opacity:0.4"/>
	</linearGradient>
	<path fill="url(#SVGID_9_)" d="M420.369,637.281c-0.349-1.168-0.687-2.339-1.026-3.512c-3.895-13.47-4.836-27.047-7.663-41.002
		c-0.898-4.437-2.046-10.12-2.833-14.602c-1.521-8.668-3.988-17.369-5.083-26.197c-0.028-0.221-0.728-0.969-0.753-1.19
		c-0.781-0.643-1.462-1.233-2.263-1.924c-2.518-2.335-4.883-3.91-7.325-6.067c-2.391-2.112-5.187-4.018-7.504-5.969
		c-5.14-4.325-10.196-7.598-14.974-11.172c-3.197-2.392-6.312-4.623-9.345-6.706c-10.711-7.354-21.966-12.846-30.584-16.922
		c0.122,4.865,0.625,10.915,0.869,15.745c0.16,3.171,0.538,6.843,0.751,10c0.503,7.519,1.056,14.754,1.848,22.181
		c0.379,3.565,0.819,7.888,1.266,11.431c0.544,4.338,0.294,9.119,0.937,13.422c0.244,1.636,0.06,0.967,0.315,2.598
		c0.296,1.872,0.449,2.47,0.763,4.333c0.838,0.479,4.22,1.834,5.062,2.324c24.63,14.325,51.07,32.681,77.818,54.373
		C420.55,638.044,420.469,637.662,420.369,637.281z"/>
	<g>
		
			<linearGradient id="SVGID_10_" gradientUnits="userSpaceOnUse" x1="574.6152" y1="310.0029" x2="573.6152" y2="454.003" gradientTransform="matrix(0.9992 -0.0387 0.0387 0.9992 -16.3942 22.5865)">
			<stop  offset="0" style="stop-color:#FFFFFF;stop-opacity:0.3"/>
			<stop  offset="1" style="stop-color:#000000;stop-opacity:0.4"/>
		</linearGradient>
		<path fill="url(#SVGID_10_)" d="M571.13,361.929c0.197,0.382,0.386,0.762,0.586,1.145"/>
		
			<linearGradient id="SVGID_11_" gradientUnits="userSpaceOnUse" x1="573.041" y1="309.9897" x2="572.0409" y2="453.997" gradientTransform="matrix(0.9992 -0.0387 0.0387 0.9992 -16.3942 22.5865)">
			<stop  offset="0" style="stop-color:#FFFFFF;stop-opacity:0.3"/>
			<stop  offset="1" style="stop-color:#000000;stop-opacity:0.4"/>
		</linearGradient>
		<path fill="url(#SVGID_11_)" d="M590.396,393.325c-7.221-9.942-13.735-20.088-18.931-30.241c-0.016-0.391-0.264-0.768-0.461-1.15
			c-0.487,1.127-0.861,2.242-1.368,3.355c-10.024,21.998-24.186,41.263-41.398,56.478c0.248,0.413,0.478,0.826,0.731,1.238
			c3.871,6.309,8.436,12.635,13.597,18.871c8.51,10.28,18.679,20.304,30.332,29.543c0.021,0.016,0.042,0.032,0.063,0.049
			c5.389-4.458,10.551-9.244,15.469-14.33c4.974-5.142,9.695-10.589,14.143-16.321c3.119-4.021,5.982-8.171,8.826-12.46
			c1.293-1.952,2.611-3.94,3.846-5.945C606.598,413.73,598.162,404.015,590.396,393.325z"/>
	</g>
</g>
<g id="Layer_2">
</g>
</svg>
