<?xml version="1.0" encoding="utf-8"?>
<!-- Generator: Adobe Illustrator 16.0.3, SVG Export Plug-In . SVG Version: 6.00 Build 0)  -->
<!DOCTYPE svg PUBLIC "-//W3C//DTD SVG 1.1//EN" "http://www.w3.org/Graphics/SVG/1.1/DTD/svg11.dtd">
<svg version="1.1" id="Layer_1" xmlns="http://www.w3.org/2000/svg" xmlns:xlink="http://www.w3.org/1999/xlink" x="0px" y="0px"
	 width="1000px" height="1000px" viewBox="0 0 1000 1000" enable-background="new 0 0 1000 1000" xml:space="preserve">
<path fill="none" stroke="#020200" stroke-miterlimit="10" d="M500,275c-0.167,0-0.333,0.006-0.5,0.006l0,0
	C499.667,275.006,499.833,275,500,275z"/>
<g>
	<defs>
		<path id="SVGID_18_" d="M548.334,680.834c-19.818,0-38.809-3.572-56.376-10.105c-0.488-0.182-0.972-0.372-1.458-0.559
			c-54.431-20.846-94.888-70.252-103.35-130.058c-0.046-0.325-0.092-0.65-0.136-0.977c-0.991-7.32-1.515-14.791-1.515-22.386
			c0-29.279,7.619-56.761,20.955-80.559c0.427-0.807,0.864-1.605,1.313-2.398c1.395-2.463,2.894-4.857,4.493-7.18
			c17.156-24.903,45.748-41.379,78.238-41.926c0.555-0.009,1.109-0.021,1.666-0.021c33.319,0,62.705,16.757,80.128,42.267
			c-19.476-29.147-48.101-51.698-81.794-63.59c-0.006-0.002-0.012-0.004-0.018-0.006c-17.117-6.04-35.537-9.338-54.732-9.338
			c-39.092,0-74.981,13.641-103.152,36.394c-0.043,0.035-0.088,0.07-0.132,0.106c-36.991,29.939-60.633,75.611-60.633,126.792
			c0,24.125,5.256,47.024,14.683,67.633c1.704,3.447,3.494,6.846,5.365,10.191c3.719,6.649,7.758,13.093,12.102,19.31
			c41.123,58.856,109.309,97.401,186.518,97.568c0.167,0,0.333,0.006,0.5,0.006c70.192,0,132.965-31.728,174.789-81.613
			C636.158,661.478,594.49,680.834,548.334,680.834z"/>
	</defs>
	<clipPath id="SVGID_1_">
		<use xlink:href="#SVGID_18_"  overflow="visible"/>
	</clipPath>
	<g clip-path="url(#SVGID_1_)">
		<line fill="none" stroke="#FF1C1C" stroke-width="7" stroke-miterlimit="10" x1="113" y1="538" x2="599" y2="902"/>
		<line fill="none" stroke="#FF221F" stroke-width="7" stroke-miterlimit="10" x1="123.637" y1="525.97" x2="607.697" y2="888"/>
		<line fill="none" stroke="#FF2921" stroke-width="7" stroke-miterlimit="10" x1="134.272" y1="513.939" x2="616.395" y2="874"/>
		<line fill="none" stroke="#FF2F24" stroke-width="7" stroke-miterlimit="10" x1="144.909" y1="501.909" x2="625.091" y2="860"/>
		<line fill="none" stroke="#FF3626" stroke-width="7" stroke-miterlimit="10" x1="155.546" y1="489.879" x2="633.788" y2="846"/>
		<line fill="none" stroke="#FF3C29" stroke-width="7" stroke-miterlimit="10" x1="166.182" y1="477.849" x2="642.485" y2="832"/>
		<line fill="none" stroke="#FF432B" stroke-width="7" stroke-miterlimit="10" x1="176.818" y1="465.818" x2="651.182" y2="818"/>
		<line fill="none" stroke="#FF492E" stroke-width="7" stroke-miterlimit="10" x1="187.455" y1="453.788" x2="659.879" y2="804"/>
		<line fill="none" stroke="#FF5031" stroke-width="7" stroke-miterlimit="10" x1="198.091" y1="441.758" x2="668.576" y2="790"/>
		<line fill="none" stroke="#FF5633" stroke-width="7" stroke-miterlimit="10" x1="208.728" y1="429.728" x2="677.272" y2="776"/>
		<line fill="none" stroke="#FF5D36" stroke-width="7" stroke-miterlimit="10" x1="219.364" y1="417.697" x2="685.97" y2="762"/>
		<line fill="none" stroke="#FF6338" stroke-width="7" stroke-miterlimit="10" x1="230" y1="405.666" x2="694.667" y2="748"/>
		<line fill="none" stroke="#FF693B" stroke-width="7" stroke-miterlimit="10" x1="240.637" y1="393.636" x2="703.363" y2="734"/>
		<line fill="none" stroke="#FF703D" stroke-width="7" stroke-miterlimit="10" x1="251.272" y1="381.605" x2="712.061" y2="720"/>
		<line fill="none" stroke="#FF7640" stroke-width="7" stroke-miterlimit="10" x1="261.909" y1="369.575" x2="720.758" y2="706"/>
		<line fill="none" stroke="#FF7D43" stroke-width="7" stroke-miterlimit="10" x1="272.546" y1="357.545" x2="729.455" y2="692"/>
		<line fill="none" stroke="#FF8345" stroke-width="7" stroke-miterlimit="10" x1="283.182" y1="345.515" x2="738.151" y2="678"/>
		<line fill="none" stroke="#FF8A48" stroke-width="7" stroke-miterlimit="10" x1="293.818" y1="333.484" x2="746.849" y2="664"/>
		<line fill="none" stroke="#FF904A" stroke-width="7" stroke-miterlimit="10" x1="304.455" y1="321.454" x2="755.546" y2="650"/>
		<line fill="none" stroke="#FF974D" stroke-width="7" stroke-miterlimit="10" x1="315.091" y1="309.424" x2="764.242" y2="636"/>
		<line fill="none" stroke="#FF9D50" stroke-width="7" stroke-miterlimit="10" x1="325.728" y1="297.394" x2="772.939" y2="622"/>
		<line fill="none" stroke="#FFA452" stroke-width="7" stroke-miterlimit="10" x1="336.363" y1="285.363" x2="781.637" y2="608"/>
		<line fill="none" stroke="#FFAA55" stroke-width="7" stroke-miterlimit="10" x1="347" y1="273.333" x2="790.333" y2="594"/>
		<line fill="none" stroke="#FFB057" stroke-width="7" stroke-miterlimit="10" x1="357.637" y1="261.303" x2="799.03" y2="580"/>
		<line fill="none" stroke="#FFB75A" stroke-width="7" stroke-miterlimit="10" x1="368.272" y1="249.272" x2="807.728" y2="566"/>
		<line fill="none" stroke="#FFBD5C" stroke-width="7" stroke-miterlimit="10" x1="378.909" y1="237.242" x2="816.424" y2="552"/>
		<line fill="none" stroke="#FFC45F" stroke-width="7" stroke-miterlimit="10" x1="389.546" y1="225.212" x2="825.121" y2="538"/>
		<line fill="none" stroke="#FFCA62" stroke-width="7" stroke-miterlimit="10" x1="400.182" y1="213.182" x2="833.818" y2="524"/>
		<line fill="none" stroke="#FFD164" stroke-width="7" stroke-miterlimit="10" x1="410.818" y1="201.151" x2="842.516" y2="510"/>
		<line fill="none" stroke="#FFD767" stroke-width="7" stroke-miterlimit="10" x1="421.454" y1="189.121" x2="851.212" y2="496"/>
		<line fill="none" stroke="#FFDE69" stroke-width="7" stroke-miterlimit="10" x1="432.091" y1="177.091" x2="859.909" y2="482"/>
		<line fill="none" stroke="#FFE46C" stroke-width="7" stroke-miterlimit="10" x1="442.728" y1="165.061" x2="868.606" y2="468"/>
		<line fill="none" stroke="#FFEB6E" stroke-width="7" stroke-miterlimit="10" x1="453.363" y1="153.03" x2="877.303" y2="454"/>
		<line fill="none" stroke="#FFF171" stroke-width="7" stroke-miterlimit="10" x1="464" y1="141" x2="886" y2="440"/>
	</g>
</g>
<g>
	<defs>
		<path id="SVGID_20_" d="M688.786,367.117C648.97,300.564,576.194,256,493,256c78.894,0,144.502,56.864,158.084,131.842
			c0.252,0.2,0.5,0.407,0.751,0.609l-0.584,0.338c1.584,9.055,2.416,18.369,2.416,27.878c0,47.351-20.487,89.912-53.075,119.317
			c-1.811,1.634-3.657,3.229-5.541,4.781c-24.824,20.437-55.886,33.569-89.9,36.113c-3.605,0.405-7.27,0.621-10.984,0.621
			c-0.557,0-1.111-0.012-1.666-0.021c-2.067-0.034-4.119-0.131-6.152-0.292c-32.961-2.623-61.265-21.68-76.649-48.938
			c-7.871-13.944-12.365-30.03-12.365-47.165c0-16.211,4.024-31.484,11.122-44.893c-13.336,23.798-20.955,51.279-20.955,80.559
			c0,7.595,0.523,15.065,1.515,22.386c0.044,0.326,0.09,0.651,0.136,0.977c8.462,59.806,48.919,109.212,103.35,130.058
			c0.486,0.187,0.97,0.377,1.458,0.559c17.567,6.533,36.558,10.105,56.376,10.105c46.156,0,87.824-19.356,117.455-50.447
			c8.854-10.561,16.769-21.932,23.615-33.991c5.229-9.211,9.845-18.815,13.771-28.769C715.389,541.734,721,513.522,721,484
			C721,441.272,709.236,401.298,688.786,367.117z"/>
	</defs>
	<clipPath id="SVGID_2_">
		<use xlink:href="#SVGID_20_"  overflow="visible"/>
	</clipPath>
	<g clip-path="url(#SVGID_2_)">
		<line fill="none" stroke="#F32AFF" stroke-width="7" stroke-miterlimit="10" x1="213" y1="365" x2="409" y2="811"/>
		
			<line fill="none" stroke="#F330F9" stroke-width="7" stroke-miterlimit="10" x1="223.788" y1="358.394" x2="423.546" y2="804.909"/>
		
			<line fill="none" stroke="#F337F3" stroke-width="7" stroke-miterlimit="10" x1="234.576" y1="351.788" x2="438.091" y2="798.818"/>
		
			<line fill="none" stroke="#F33DEC" stroke-width="7" stroke-miterlimit="10" x1="245.364" y1="345.182" x2="452.637" y2="792.728"/>
		
			<line fill="none" stroke="#F344E6" stroke-width="7" stroke-miterlimit="10" x1="256.151" y1="338.575" x2="467.182" y2="786.637"/>
		
			<line fill="none" stroke="#F34AE0" stroke-width="7" stroke-miterlimit="10" x1="266.939" y1="331.97" x2="481.728" y2="780.545"/>
		
			<line fill="none" stroke="#F351DA" stroke-width="7" stroke-miterlimit="10" x1="277.728" y1="325.363" x2="496.272" y2="774.454"/>
		
			<line fill="none" stroke="#F357D3" stroke-width="7" stroke-miterlimit="10" x1="288.516" y1="318.758" x2="510.818" y2="768.363"/>
		
			<line fill="none" stroke="#F35ECD" stroke-width="7" stroke-miterlimit="10" x1="299.303" y1="312.151" x2="525.364" y2="762.272"/>
		
			<line fill="none" stroke="#F364C7" stroke-width="7" stroke-miterlimit="10" x1="310.091" y1="305.545" x2="539.909" y2="756.182"/>
		
			<line fill="none" stroke="#F36BC1" stroke-width="7" stroke-miterlimit="10" x1="320.879" y1="298.939" x2="554.455" y2="750.091"/>
		<line fill="none" stroke="#F371BA" stroke-width="7" stroke-miterlimit="10" x1="331.667" y1="292.333" x2="569" y2="744"/>
		
			<line fill="none" stroke="#F377B4" stroke-width="7" stroke-miterlimit="10" x1="342.455" y1="285.728" x2="583.546" y2="737.909"/>
		
			<line fill="none" stroke="#F37EAE" stroke-width="7" stroke-miterlimit="10" x1="353.242" y1="279.121" x2="598.091" y2="731.818"/>
		
			<line fill="none" stroke="#F384A8" stroke-width="7" stroke-miterlimit="10" x1="364.03" y1="272.515" x2="612.637" y2="725.728"/>
		
			<line fill="none" stroke="#F38BA1" stroke-width="7" stroke-miterlimit="10" x1="374.818" y1="265.909" x2="627.182" y2="719.637"/>
		
			<line fill="none" stroke="#F3919B" stroke-width="7" stroke-miterlimit="10" x1="385.606" y1="259.303" x2="641.728" y2="713.545"/>
		
			<line fill="none" stroke="#F39895" stroke-width="7" stroke-miterlimit="10" x1="396.395" y1="252.697" x2="656.273" y2="707.454"/>
		
			<line fill="none" stroke="#F39E8F" stroke-width="7" stroke-miterlimit="10" x1="407.182" y1="246.091" x2="670.818" y2="701.363"/>
		
			<line fill="none" stroke="#F3A588" stroke-width="7" stroke-miterlimit="10" x1="417.97" y1="239.484" x2="685.364" y2="695.272"/>
		
			<line fill="none" stroke="#F3AB82" stroke-width="7" stroke-miterlimit="10" x1="428.758" y1="232.879" x2="699.909" y2="689.182"/>
		
			<line fill="none" stroke="#F3B27C" stroke-width="7" stroke-miterlimit="10" x1="439.546" y1="226.272" x2="714.455" y2="683.091"/>
		<line fill="none" stroke="#F3B876" stroke-width="7" stroke-miterlimit="10" x1="450.333" y1="219.667" x2="729" y2="677"/>
		
			<line fill="none" stroke="#F3BE6F" stroke-width="7" stroke-miterlimit="10" x1="461.121" y1="213.061" x2="743.546" y2="670.909"/>
		
			<line fill="none" stroke="#F3C569" stroke-width="7" stroke-miterlimit="10" x1="471.909" y1="206.454" x2="758.091" y2="664.818"/>
		
			<line fill="none" stroke="#F3CB63" stroke-width="7" stroke-miterlimit="10" x1="482.697" y1="199.849" x2="772.637" y2="658.728"/>
		
			<line fill="none" stroke="#F3D25D" stroke-width="7" stroke-miterlimit="10" x1="493.485" y1="193.242" x2="787.182" y2="652.637"/>
		
			<line fill="none" stroke="#F3D856" stroke-width="7" stroke-miterlimit="10" x1="504.272" y1="186.637" x2="801.728" y2="646.546"/>
		
			<line fill="none" stroke="#F3DF50" stroke-width="7" stroke-miterlimit="10" x1="515.061" y1="180.03" x2="816.272" y2="640.454"/>
		
			<line fill="none" stroke="#F3E54A" stroke-width="7" stroke-miterlimit="10" x1="525.849" y1="173.424" x2="830.818" y2="634.363"/>
		
			<line fill="none" stroke="#F3EC44" stroke-width="7" stroke-miterlimit="10" x1="536.637" y1="166.818" x2="845.363" y2="628.272"/>
		
			<line fill="none" stroke="#F3F23D" stroke-width="7" stroke-miterlimit="10" x1="547.424" y1="160.212" x2="859.909" y2="622.182"/>
		
			<line fill="none" stroke="#F3F937" stroke-width="7" stroke-miterlimit="10" x1="558.212" y1="153.606" x2="874.454" y2="616.091"/>
		<line fill="none" stroke="#F3FF31" stroke-width="7" stroke-miterlimit="10" x1="569" y1="147" x2="889" y2="610"/>
	</g>
</g>
<g>
	<defs>
		<path id="SVGID_22_" d="M648.251,388.789c-0.056-0.316-0.11-0.633-0.167-0.947C634.502,312.864,568.894,256,490,256
			c-0.167,0-0.333,0.006-0.5,0.006c-83.509,0.18-156.463,45.258-196.032,112.373C273.48,402.28,262,441.797,262,484
			c0,36.241,8.47,70.499,23.516,100.925c-9.427-20.608-14.683-43.508-14.683-67.633c0-51.181,23.642-96.853,60.633-126.792
			c0.009-0.057,0.019-0.111,0.027-0.167l0.104,0.061C359.769,367.641,395.658,354,434.75,354c19.195,0,37.365,3.298,54.482,9.338
			c0.006-0.003-0.232-0.005-0.232-0.007v0.013c34,11.892,62.568,34.442,82.044,63.59c0.958,1.402,2.006,2.83,2.89,4.284
			c0.063,0.1,0.188,0.198,0.249,0.298l0.024,0.004c8.734,14.484,13.777,31.439,13.777,49.564c0,18.074-4.991,34.982-13.681,49.439
			c-15.134,25.178-41.47,42.905-72.157,46.355c34.015-2.544,65.078-15.677,89.902-36.113c1.884-1.552,3.731-3.147,5.542-4.781
			c32.588-29.405,53.075-71.967,53.075-119.317C650.666,407.158,649.835,397.844,648.251,388.789z"/>
	</defs>
	<clipPath id="SVGID_3_">
		<use xlink:href="#SVGID_22_"  overflow="visible"/>
	</clipPath>
	<g clip-path="url(#SVGID_3_)">
		<line fill="none" stroke="#0202FF" stroke-width="7" stroke-miterlimit="10" x1="92" y1="415" x2="449" y2="36"/>
		
			<line fill="none" stroke="#040AF8" stroke-width="7" stroke-miterlimit="10" x1="107.061" y1="426.425" x2="463.546" y2="44.939"/>
		
			<line fill="none" stroke="#0611F1" stroke-width="7" stroke-miterlimit="10" x1="122.121" y1="437.849" x2="478.091" y2="53.879"/>
		
			<line fill="none" stroke="#0819EA" stroke-width="7" stroke-miterlimit="10" x1="137.182" y1="449.272" x2="492.637" y2="62.818"/>
		
			<line fill="none" stroke="#0A21E3" stroke-width="7" stroke-miterlimit="10" x1="152.242" y1="460.697" x2="507.182" y2="71.758"/>
		
			<line fill="none" stroke="#0C28DC" stroke-width="7" stroke-miterlimit="10" x1="167.304" y1="472.121" x2="521.728" y2="80.697"/>
		
			<line fill="none" stroke="#0F30D4" stroke-width="7" stroke-miterlimit="10" x1="182.364" y1="483.546" x2="536.272" y2="89.637"/>
		<line fill="none" stroke="#1138CD" stroke-width="7" stroke-miterlimit="10" x1="197.425" y1="494.97" x2="550.818" y2="98.576"/>
		
			<line fill="none" stroke="#133FC6" stroke-width="7" stroke-miterlimit="10" x1="212.485" y1="506.395" x2="565.364" y2="107.516"/>
		
			<line fill="none" stroke="#1547BF" stroke-width="7" stroke-miterlimit="10" x1="227.546" y1="517.818" x2="579.909" y2="116.455"/>
		
			<line fill="none" stroke="#174FB8" stroke-width="7" stroke-miterlimit="10" x1="242.606" y1="529.242" x2="594.455" y2="125.395"/>
		<line fill="none" stroke="#1956B1" stroke-width="7" stroke-miterlimit="10" x1="257.667" y1="540.667" x2="609" y2="134.333"/>
		
			<line fill="none" stroke="#1B5EAA" stroke-width="7" stroke-miterlimit="10" x1="272.728" y1="552.091" x2="623.546" y2="143.272"/>
		
			<line fill="none" stroke="#1D66A3" stroke-width="7" stroke-miterlimit="10" x1="287.788" y1="563.516" x2="638.091" y2="152.212"/>
		
			<line fill="none" stroke="#1F6D9C" stroke-width="7" stroke-miterlimit="10" x1="302.849" y1="574.939" x2="652.637" y2="161.151"/>
		
			<line fill="none" stroke="#217595" stroke-width="7" stroke-miterlimit="10" x1="317.909" y1="586.364" x2="667.182" y2="170.091"/>
		<line fill="none" stroke="#237D8E" stroke-width="7" stroke-miterlimit="10" x1="332.97" y1="597.788" x2="681.728" y2="179.03"/>
		<line fill="none" stroke="#268486" stroke-width="7" stroke-miterlimit="10" x1="348.03" y1="609.212" x2="696.273" y2="187.97"/>
		
			<line fill="none" stroke="#288C7F" stroke-width="7" stroke-miterlimit="10" x1="363.091" y1="620.637" x2="710.818" y2="196.909"/>
		
			<line fill="none" stroke="#2A9478" stroke-width="7" stroke-miterlimit="10" x1="378.151" y1="632.061" x2="725.364" y2="205.849"/>
		
			<line fill="none" stroke="#2C9B71" stroke-width="7" stroke-miterlimit="10" x1="393.212" y1="643.485" x2="739.909" y2="214.788"/>
		
			<line fill="none" stroke="#2EA36A" stroke-width="7" stroke-miterlimit="10" x1="408.272" y1="654.909" x2="754.455" y2="223.728"/>
		<line fill="none" stroke="#30AB63" stroke-width="7" stroke-miterlimit="10" x1="423.333" y1="666.333" x2="769" y2="232.667"/>
		
			<line fill="none" stroke="#32B25C" stroke-width="7" stroke-miterlimit="10" x1="438.395" y1="677.758" x2="783.546" y2="241.606"/>
		
			<line fill="none" stroke="#34BA55" stroke-width="7" stroke-miterlimit="10" x1="453.455" y1="689.182" x2="798.091" y2="250.546"/>
		
			<line fill="none" stroke="#36C24E" stroke-width="7" stroke-miterlimit="10" x1="468.516" y1="700.606" x2="812.637" y2="259.485"/>
		
			<line fill="none" stroke="#38C947" stroke-width="7" stroke-miterlimit="10" x1="483.576" y1="712.03" x2="827.182" y2="268.424"/>
		
			<line fill="none" stroke="#3AD140" stroke-width="7" stroke-miterlimit="10" x1="498.637" y1="723.455" x2="841.728" y2="277.363"/>
		
			<line fill="none" stroke="#3DD938" stroke-width="7" stroke-miterlimit="10" x1="513.697" y1="734.879" x2="856.272" y2="286.303"/>
		
			<line fill="none" stroke="#3FE031" stroke-width="7" stroke-miterlimit="10" x1="528.758" y1="746.303" x2="870.818" y2="295.242"/>
		
			<line fill="none" stroke="#41E82A" stroke-width="7" stroke-miterlimit="10" x1="543.818" y1="757.728" x2="885.363" y2="304.182"/>
		
			<line fill="none" stroke="#43F023" stroke-width="7" stroke-miterlimit="10" x1="558.879" y1="769.151" x2="899.909" y2="313.121"/>
		
			<line fill="none" stroke="#45F71C" stroke-width="7" stroke-miterlimit="10" x1="573.939" y1="780.576" x2="914.454" y2="322.061"/>
		<line fill="none" stroke="#47FF15" stroke-width="7" stroke-miterlimit="10" x1="589" y1="792" x2="929" y2="331"/>
	</g>
</g>
</svg>
