<?xml version="1.0" encoding="utf-8"?>
<!-- Generator: Adobe Illustrator 16.0.3, SVG Export Plug-In . SVG Version: 6.00 Build 0)  -->
<!DOCTYPE svg PUBLIC "-//W3C//DTD SVG 1.1//EN" "http://www.w3.org/Graphics/SVG/1.1/DTD/svg11.dtd">
<svg version="1.1" id="Layer_1" xmlns="http://www.w3.org/2000/svg" xmlns:xlink="http://www.w3.org/1999/xlink" x="0px" y="0px"
	 width="1000px" height="1000px" viewBox="0 0 1000 1000" enable-background="new 0 0 1000 1000" xml:space="preserve">
<g>
	<defs>
		<rect id="SVGID_1_" width="1000" height="1000"/>
	</defs>
	<clipPath id="SVGID_2_">
		<use xlink:href="#SVGID_1_"  overflow="visible"/>
	</clipPath>
	<path clip-path="url(#SVGID_2_)" d="M548.94,626.688c0.142-0.094,0.284-0.187,0.426-0.28c-0.01-0.008-0.021-0.016-0.031-0.023
		L548.94,626.688z"/>
	<path clip-path="url(#SVGID_2_)" fill="none" stroke="#000000" stroke-miterlimit="10" d="M320.102,576.992
		c0.064,0.156,0.127,0.313,0.191,0.469"/>
</g>
<g>
	<defs>
		<path id="SVGID_3_" d="M614.826,416.582c-23.63,0.833-45.471,8.697-63.488,21.573c-2.261,1.616-4.46,3.309-6.596,5.077
			l-19.898,15.317l-4.482,3.45l-33.292,25.626l-1.844,1.419l-22.32,17.181c0,0-69.148,53.225-69.718,53.662
			c-0.112,0.088,5.082,5.53,5.585,5.989c2.06,1.88,4.325,3.521,6.728,4.935c4.867,2.863,10.22,4.871,15.82,5.666
			c3.105,0.442,6.202,0.745,9.341,0.813c2.886,0.061,5.959,0.192,8.73-0.757c3.677-1.259,6.52-4.008,9.429-6.466
			c1.148-0.971,2.326-1.909,3.52-2.822c1.783-1.361,3.552-2.739,5.329-4.11c1.493-1.15,2.987-2.302,4.483-3.45
			c0.622-0.479,1.246-0.958,1.869-1.436c0.05-0.072,0.103-0.14,0.153-0.211l38.188-29.396l0.232-0.179l37.121-28.574l14.091-10.846
			l17.7-13.624c1.18-0.974,2.399-1.898,3.634-2.799c11.052-8.039,24.386-13.113,38.852-14.072h10.013
			c5.63,0.373,11.09,1.366,16.313,2.92c15.415,4.588,28.741,14.012,38.216,26.526c0.263,0.345,0.517,0.697,0.771,1.049
			c5.938,8.13,10.262,17.502,12.525,27.656c1.17,5.249,1.805,10.698,1.805,16.3c0,16.453-5.335,31.656-14.354,43.992
			c-13.577,18.572-35.517,30.646-60.282,30.646c-0.38,0-0.757-0.023-1.137-0.029c-0.973-0.015-1.944-0.03-2.907-0.084
			c-0.652-0.011-1.302-0.024-1.956-0.024c-23.485,0-45.339,6.954-63.634,18.907c-0.144,0.093-0.283,0.187-0.425,0.28
			c-4.756,3.139-9.267,6.611-13.5,10.391c-4.275,3.818-8.268,7.943-11.94,12.347h91.51h7.978
			c21.968-0.739,42.391-7.558,59.645-18.832c19.702-12.872,35.266-31.547,44.266-53.601c5.542-13.574,8.602-28.425,8.602-43.992
			c0-15.363-2.98-30.03-8.385-43.46c-0.065-0.166-0.135-0.331-0.202-0.496c-3.899-9.563-9.033-18.492-15.202-26.589
			c-1.009-1.324-2.044-2.628-3.107-3.906c-8.61-10.352-18.983-19.186-30.655-26.047c-10.271-6.037-21.547-10.545-33.521-13.211
			c-6.876-1.532-13.979-2.452-21.255-2.709c-1.385-0.047-2.773-0.082-4.173-0.082C617.602,416.5,616.212,416.535,614.826,416.582"/>
	</defs>
	<clipPath id="SVGID_4_">
		<use xlink:href="#SVGID_3_"  overflow="visible"/>
	</clipPath>
	
		<linearGradient id="SVGID_5_" gradientUnits="userSpaceOnUse" x1="0" y1="1000" x2="1" y2="1000" gradientTransform="matrix(-205.3187 -388.0879 388.0879 -205.3187 -387417.375 206052.4219)">
		<stop  offset="0" style="stop-color:#00FFFF"/>
		<stop  offset="0.6592" style="stop-color:#1D1D1B"/>
		<stop  offset="1" style="stop-color:#1D1D1B"/>
	</linearGradient>
	<polygon clip-path="url(#SVGID_4_)" fill="url(#SVGID_5_)" points="831.781,598.487 660.616,274.957 296.795,467.438 
		467.959,790.968 	"/>
</g>
<g>
	<defs>
		<path id="SVGID_6_" d="M423.825,416.582c-21.713,0.766-41.915,7.467-59.027,18.541c-9.948,6.438-18.851,14.348-26.402,23.426
			c-7.568,9.097-13.772,19.367-18.309,30.495c-5.532,13.567-8.587,28.402-8.587,43.956c0,15.567,3.061,30.418,8.601,43.992
			l0.192,0.469c3.967,9.597,9.179,18.551,15.436,26.656c8.715,11.293,19.455,20.945,31.681,28.406
			c10.072,6.143,21.151,10.795,32.93,13.664c14.37,3.502,29.268,3.307,43.957,3.598c12.182,0.241,24.659-1.696,35.3-7.925
			c3.026-1.771,5.771-3.888,8.468-6.119c3.744-3.1,7.243-6.502,11.008-9.572c7.71-6.288,15.773-12.178,23.658-18.248
			c1.448-1.116,2.896-2.233,4.347-3.347l33.189-25.545l2.644-2.037l21.629-16.649c0,0,69.712-53.66,69.719-53.666
			c0.185-0.142-5.17-5.845-5.688-6.317c-2.178-1.994-4.604-3.692-7.154-5.171c-10.081-5.84-23.985-8.255-35.333-5.07
			c-7.378,2.071-12.223,6.761-17.885,11.571c-2.729,2.316-5.747,4.346-8.616,6.49c-4.766,3.563-9.469,7.248-14.158,10.912
			c-4.579,3.578-9.215,7.081-13.796,10.659c-2.319,1.81-4.629,3.689-7.018,5.404c-0.045,0.032-0.094,0.059-0.14,0.09
			c-0.008,0.376-0.013,0.754-0.023,1.131c-0.017-0.362-0.018-0.727-0.027-1.093l-37.668,28.996l-16.519,12.713h-0.042l-5.276,4.051
			c-0.033,0.039-0.063,0.078-0.097,0.117l-24.894,19.164c-9.677,4.596-20.498,7.176-31.925,7.176c-8.122,0-15.932-1.318-23.25-3.72
			c-14.316-4.701-26.713-13.617-35.729-25.289c-0.384-0.496-0.763-0.993-1.133-1.499c-5.763-7.859-10.011-16.89-12.341-26.667
			c-1.325-5.562-2.047-11.357-2.047-17.325c0-16.443,5.338-31.632,14.361-43.956c13.202-18.032,34.312-29.892,58.227-30.495h3.824
			c0.406,0.009,0.815,0.014,1.218,0.03c0.303,0.012,0.607,0.018,0.909,0.033c0.984,0.025,1.971,0.038,2.961,0.038
			c1.568,0,3.127-0.041,4.681-0.101c21.52-0.852,41.541-7.536,58.521-18.523c9.955-6.441,18.864-14.358,26.418-23.444h-92.445
			c-1.387-0.047-2.777-0.082-4.175-0.082S425.212,416.535,423.825,416.582"/>
	</defs>
	<clipPath id="SVGID_7_">
		<use xlink:href="#SVGID_6_"  overflow="visible"/>
	</clipPath>
	
		<linearGradient id="SVGID_8_" gradientUnits="userSpaceOnUse" x1="0" y1="1000" x2="1" y2="1000" gradientTransform="matrix(194.6374 -223.1209 223.1209 194.6374 -222760.5 -193963.625)">
		<stop  offset="0" style="stop-color:#00FFFF"/>
		<stop  offset="0.6592" style="stop-color:#1D1D1B"/>
		<stop  offset="1" style="stop-color:#1D1D1B"/>
	</linearGradient>
	<polygon clip-path="url(#SVGID_7_)" fill="url(#SVGID_8_)" points="506.246,819.91 770.125,517.414 459.697,246.615 
		195.817,549.111 	"/>
</g>
</svg>
